<mxfile host="Electron" modified="2025-06-18T02:40:10.688Z" agent="Mozilla/5.0 (Windows NT 10.0; Win64; x64) AppleWebKit/537.36 (KHTML, like Gecko) draw.io/24.6.4 Chrome/124.0.6367.207 Electron/30.0.6 Safari/537.36" etag="96H6dxHxFpI3mgMhAZFB" version="24.6.4" type="device" pages="2">
  <diagram name="Requirement" id="yWySbUb0s3jJObHDZFrF">
    <mxGraphModel dx="1450" dy="1029" grid="0" gridSize="10" guides="1" tooltips="1" connect="1" arrows="1" fold="1" page="0" pageScale="1" pageWidth="850" pageHeight="1100" math="0" shadow="0">
      <root>
        <mxCell id="0" />
        <mxCell id="1" parent="0" />
        <mxCell id="L_gjNP1ykKeoBa9wgZY3-1" value="user -&amp;gt;&amp;nbsp;id, username, email, hashed_password, created_at" style="rounded=0;whiteSpace=wrap;html=1;" parent="1" vertex="1">
          <mxGeometry x="-167" y="-31" width="489" height="60" as="geometry" />
        </mxCell>
        <mxCell id="L_gjNP1ykKeoBa9wgZY3-2" value="wallets -&amp;gt;&amp;nbsp;&lt;span style=&quot;background-color: initial;&quot;&gt;id, user_id, asset_symbol, balance&lt;/span&gt;" style="rounded=0;whiteSpace=wrap;html=1;" parent="1" vertex="1">
          <mxGeometry x="-170" y="38" width="489" height="60" as="geometry" />
        </mxCell>
        <mxCell id="L_gjNP1ykKeoBa9wgZY3-9" style="edgeStyle=orthogonalEdgeStyle;rounded=0;orthogonalLoop=1;jettySize=auto;html=1;entryX=0;entryY=0.5;entryDx=0;entryDy=0;" parent="1" source="L_gjNP1ykKeoBa9wgZY3-3" target="L_gjNP1ykKeoBa9wgZY3-8" edge="1">
          <mxGeometry relative="1" as="geometry" />
        </mxCell>
        <mxCell id="L_gjNP1ykKeoBa9wgZY3-3" value="assets -&amp;gt;&amp;nbsp;&lt;span style=&quot;background-color: initial;&quot;&gt;symbol, name&lt;/span&gt;" style="rounded=0;whiteSpace=wrap;html=1;" parent="1" vertex="1">
          <mxGeometry x="-167" y="112" width="488" height="60" as="geometry" />
        </mxCell>
        <mxCell id="L_gjNP1ykKeoBa9wgZY3-7" style="edgeStyle=orthogonalEdgeStyle;rounded=0;orthogonalLoop=1;jettySize=auto;html=1;" parent="1" source="L_gjNP1ykKeoBa9wgZY3-5" target="L_gjNP1ykKeoBa9wgZY3-6" edge="1">
          <mxGeometry relative="1" as="geometry" />
        </mxCell>
        <mxCell id="L_gjNP1ykKeoBa9wgZY3-5" value="external_transactions -&amp;gt;&amp;nbsp;&lt;span style=&quot;background-color: initial;&quot;&gt;id, user_id, tx_type, method, asset_symbol, amount,&amp;nbsp;&lt;/span&gt;&lt;div&gt;external_address, tx_hash, bank_reference, status,&amp;nbsp;&lt;/div&gt;&lt;div&gt;created_at, processed_at&lt;/div&gt;&lt;div&gt;&lt;br&gt;&lt;/div&gt;" style="rounded=0;whiteSpace=wrap;html=1;" parent="1" vertex="1">
          <mxGeometry x="-170" y="186" width="492" height="60" as="geometry" />
        </mxCell>
        <mxCell id="L_gjNP1ykKeoBa9wgZY3-6" value="&lt;li data-start=&quot;877&quot; data-end=&quot;912&quot;&gt;&lt;p data-start=&quot;879&quot; data-end=&quot;912&quot;&gt;&lt;code data-start=&quot;879&quot; data-end=&quot;888&quot;&gt;tx_type&lt;/code&gt;: &#39;on_ramp&#39; o &#39;off_ramp&#39;&lt;/p&gt;&lt;/li&gt;&lt;li data-start=&quot;913&quot; data-end=&quot;958&quot;&gt;&lt;p data-start=&quot;915&quot; data-end=&quot;958&quot;&gt;&lt;code data-start=&quot;915&quot; data-end=&quot;923&quot;&gt;method&lt;/code&gt;: &#39;crypto&#39;, &#39;bank_transfer&#39;, &#39;card&#39;&lt;/p&gt;&lt;/li&gt;" style="text;whiteSpace=wrap;html=1;" parent="1" vertex="1">
          <mxGeometry x="429" y="201" width="347.2" height="160" as="geometry" />
        </mxCell>
        <mxCell id="L_gjNP1ykKeoBa9wgZY3-8" value="Listado de activos disponibles (BTC, ETH, USDT...)." style="text;whiteSpace=wrap;html=1;" parent="1" vertex="1">
          <mxGeometry x="394.9999755859375" y="124" width="305" height="36" as="geometry" />
        </mxCell>
        <mxCell id="L_gjNP1ykKeoBa9wgZY3-10" value="kyc" style="rounded=0;whiteSpace=wrap;html=1;" parent="1" vertex="1">
          <mxGeometry x="-170" y="271" width="120" height="60" as="geometry" />
        </mxCell>
        <mxCell id="L_gjNP1ykKeoBa9wgZY3-11" value="&lt;code data-start=&quot;1921&quot; data-end=&quot;1939&quot;&gt;wallet_movements&lt;/code&gt;" style="text;whiteSpace=wrap;html=1;" parent="1" vertex="1">
          <mxGeometry x="-170.0000244140625" y="353" width="143" height="38" as="geometry" />
        </mxCell>
        <mxCell id="L_gjNP1ykKeoBa9wgZY3-12" value="audit_logs" style="text;whiteSpace=wrap;html=1;" parent="1" vertex="1">
          <mxGeometry x="-170.0000244140625" y="396" width="83" height="36" as="geometry" />
        </mxCell>
      </root>
    </mxGraphModel>
  </diagram>
  <diagram id="35rkPTzsEOKGCLc9hXsJ" name="ERD">
    <mxGraphModel dx="1050" dy="629" grid="1" gridSize="10" guides="1" tooltips="1" connect="1" arrows="1" fold="1" page="1" pageScale="1" pageWidth="850" pageHeight="1100" math="0" shadow="0">
      <root>
        <mxCell id="0" />
        <mxCell id="1" parent="0" />
        <mxCell id="7LZowAsrgU-3GNbjxOIg-14" value="users" style="shape=table;startSize=30;container=1;collapsible=1;childLayout=tableLayout;fixedRows=1;rowLines=0;fontStyle=1;align=center;resizeLast=1;html=1;" vertex="1" parent="1">
          <mxGeometry x="90" y="50" width="180" height="90" as="geometry" />
        </mxCell>
        <mxCell id="7LZowAsrgU-3GNbjxOIg-15" value="" style="shape=tableRow;horizontal=0;startSize=0;swimlaneHead=0;swimlaneBody=0;fillColor=none;collapsible=0;dropTarget=0;points=[[0,0.5],[1,0.5]];portConstraint=eastwest;top=0;left=0;right=0;bottom=1;" vertex="1" parent="7LZowAsrgU-3GNbjxOIg-14">
          <mxGeometry y="30" width="180" height="30" as="geometry" />
        </mxCell>
        <mxCell id="7LZowAsrgU-3GNbjxOIg-16" value="PK" style="shape=partialRectangle;connectable=0;fillColor=none;top=0;left=0;bottom=0;right=0;fontStyle=1;overflow=hidden;whiteSpace=wrap;html=1;" vertex="1" parent="7LZowAsrgU-3GNbjxOIg-15">
          <mxGeometry width="30" height="30" as="geometry">
            <mxRectangle width="30" height="30" as="alternateBounds" />
          </mxGeometry>
        </mxCell>
        <mxCell id="7LZowAsrgU-3GNbjxOIg-17" value="Id" style="shape=partialRectangle;connectable=0;fillColor=none;top=0;left=0;bottom=0;right=0;align=left;spacingLeft=6;fontStyle=5;overflow=hidden;whiteSpace=wrap;html=1;" vertex="1" parent="7LZowAsrgU-3GNbjxOIg-15">
          <mxGeometry x="30" width="150" height="30" as="geometry">
            <mxRectangle width="150" height="30" as="alternateBounds" />
          </mxGeometry>
        </mxCell>
        <mxCell id="7LZowAsrgU-3GNbjxOIg-18" value="" style="shape=tableRow;horizontal=0;startSize=0;swimlaneHead=0;swimlaneBody=0;fillColor=none;collapsible=0;dropTarget=0;points=[[0,0.5],[1,0.5]];portConstraint=eastwest;top=0;left=0;right=0;bottom=0;" vertex="1" parent="7LZowAsrgU-3GNbjxOIg-14">
          <mxGeometry y="60" width="180" height="30" as="geometry" />
        </mxCell>
        <mxCell id="7LZowAsrgU-3GNbjxOIg-19" value="" style="shape=partialRectangle;connectable=0;fillColor=none;top=0;left=0;bottom=0;right=0;editable=1;overflow=hidden;whiteSpace=wrap;html=1;" vertex="1" parent="7LZowAsrgU-3GNbjxOIg-18">
          <mxGeometry width="30" height="30" as="geometry">
            <mxRectangle width="30" height="30" as="alternateBounds" />
          </mxGeometry>
        </mxCell>
        <mxCell id="7LZowAsrgU-3GNbjxOIg-20" value="username" style="shape=partialRectangle;connectable=0;fillColor=none;top=0;left=0;bottom=0;right=0;align=left;spacingLeft=6;overflow=hidden;whiteSpace=wrap;html=1;" vertex="1" parent="7LZowAsrgU-3GNbjxOIg-18">
          <mxGeometry x="30" width="150" height="30" as="geometry">
            <mxRectangle width="150" height="30" as="alternateBounds" />
          </mxGeometry>
        </mxCell>
      </root>
    </mxGraphModel>
  </diagram>
</mxfile>
